<svg width="251" height="251" viewBox="0 0 251 251" fill="none" xmlns="http://www.w3.org/2000/svg">
<g clip-path="url(#clip0_10_8)">
<path d="M176.55 0.585951C178.992 1.61155 180.75 3.80927 181.238 6.39769L190.957 59.094L243.653 68.764C246.242 69.2524 248.439 71.0105 249.465 73.4524C250.491 75.8944 250.198 78.6781 248.684 80.8759L218.258 125.026L248.684 169.126C250.198 171.324 250.491 174.108 249.465 176.55C248.439 178.992 246.242 180.75 243.653 181.238L190.957 190.957L181.238 243.653C180.75 246.242 178.992 248.439 176.55 249.465C174.108 250.491 171.324 250.198 169.126 248.684L125.026 218.258L80.9247 248.684C78.727 250.198 75.9432 250.491 73.5013 249.465C71.0594 248.439 69.3012 246.242 68.8128 243.653L59.094 190.957L6.39769 181.238C3.80927 180.75 1.61155 178.992 0.585951 176.55C-0.43965 174.108 -0.146621 171.324 1.36736 169.126L31.7935 125.026L1.36736 80.9247C-0.146621 78.727 -0.43965 75.9432 0.585951 73.5013C1.61155 71.0594 3.80927 69.3012 6.39769 68.8128L59.094 59.094L68.8128 6.39769C69.3012 3.80927 71.0594 1.61155 73.5013 0.585951C75.9432 -0.43965 78.727 -0.146621 80.9247 1.36736L125.026 31.7935L169.126 1.36736C171.324 -0.146621 174.108 -0.43965 176.55 0.585951V0.585951ZM171.91 125.026C171.91 150.91 150.91 171.91 125.026 171.91C99.1413 171.91 78.1409 150.91 78.1409 125.026C78.1409 99.1413 99.1413 78.1409 125.026 78.1409C150.91 78.1409 171.91 99.1413 171.91 125.026ZM187.538 125.026C187.538 90.497 159.554 62.5127 125.026 62.5127C90.497 62.5127 62.5127 90.497 62.5127 125.026C62.5127 159.554 90.497 187.538 125.026 187.538C159.554 187.538 187.538 159.554 187.538 125.026Z" fill="white"/>
</g>
<defs>
<clipPath id="clip0_10_8">
<rect width="250.051" height="250.051" fill="white"/>
</clipPath>
</defs>
</svg>
