<svg width="313" height="251" viewBox="0 0 313 251" fill="none" xmlns="http://www.w3.org/2000/svg">
<g clip-path="url(#clip0_10_2)">
<path d="M59.8292 0.586075C62.3688 -0.439526 65.2014 -0.097659 67.3991 1.46516L101.732 26.0307L136.066 1.46516C138.263 -0.097659 141.096 -0.439526 143.587 0.586075C146.077 1.61168 147.884 3.85823 148.324 6.54433L155.21 48.2033L196.869 55.0894C199.506 55.529 201.802 57.336 202.827 59.8267C203.853 62.3175 203.511 65.1501 201.948 67.3478L182.999 93.8669C181.925 93.8181 180.899 93.7693 179.825 93.7693C168.494 93.7693 157.847 96.7972 148.666 102.072C148.715 95.967 147.591 89.7157 145.101 83.7086C135.186 59.7779 107.788 48.4475 83.8576 58.3128C59.9269 68.1781 48.5964 95.6251 58.4617 119.556C67.3991 141.191 90.6949 152.522 112.721 147.198C94.9927 156.087 82.0506 173.229 78.9737 193.546L67.4479 201.799C65.2502 203.362 62.4176 203.704 59.9269 202.678C57.4361 201.653 55.6291 199.406 55.1896 196.72L48.2545 155.159L6.59561 148.273C3.90952 147.833 1.66296 146.026 0.63736 143.535C-0.388241 141.045 -0.0463742 138.163 1.51645 136.014L26.082 101.681L1.51645 67.3478C-0.0463742 65.1501 -0.388241 62.3175 0.63736 59.8267C1.66296 57.336 3.90952 55.529 6.59561 55.0894L48.2545 48.2033L55.1407 6.54433C55.5803 3.85823 57.3873 1.61168 59.878 0.586075H59.8292ZM72.8201 113.646C66.227 97.6763 73.7969 79.4108 89.7181 72.8177C105.639 66.2245 123.954 73.7945 130.547 89.7157C137.14 105.637 129.57 123.951 113.649 130.544C97.7276 137.138 79.4133 129.568 72.8201 113.646V113.646ZM312.567 210.932C312.567 232.518 295.083 250.002 273.496 250.002H140.705C114.821 250.002 93.8205 229.002 93.8205 203.118C93.8205 179.871 110.719 160.629 132.891 156.917V156.282C132.891 130.398 153.891 109.397 179.776 109.397C196.82 109.397 211.716 118.481 219.921 132.058C226.27 127.614 233.986 125.026 242.288 125.026C263.875 125.026 281.359 142.51 281.359 164.096C281.359 166.978 281.066 169.81 280.431 172.496C298.697 175.768 312.567 191.739 312.567 210.932V210.932Z" fill="white"/>
</g>
<defs>
<clipPath id="clip0_10_2">
<rect width="312.564" height="250.051" fill="white" transform="translate(0.0512695)"/>
</clipPath>
</defs>
</svg>
