<svg width="314" height="251" viewBox="0 0 314 251" fill="none" xmlns="http://www.w3.org/2000/svg">
<g clip-path="url(#clip0_10_4)">
<path d="M0.615479 164.096C0.615479 202.922 32.1161 234.423 70.9424 234.423H250.667C285.195 234.423 313.18 206.439 313.18 171.91C313.18 141.679 291.691 116.43 263.169 110.667C265.172 105.442 266.295 99.7275 266.295 93.7692C266.295 67.885 245.295 46.8846 219.41 46.8846C209.789 46.8846 200.803 49.8149 193.38 54.7964C179.851 31.3541 154.602 15.6282 125.641 15.6282C82.4682 15.6282 47.5001 50.5963 47.5001 93.7692C47.5001 95.0879 47.5489 96.4065 47.5978 97.7251C20.2484 107.346 0.615479 133.426 0.615479 164.096Z" fill="white"/>
</g>
<defs>
<clipPath id="clip0_10_4">
<rect width="312.564" height="250.051" fill="white" transform="translate(0.615479)"/>
</clipPath>
</defs>
</svg>
