<svg width="251" height="251" viewBox="0 0 251 251" fill="none" xmlns="http://www.w3.org/2000/svg">
<g clip-path="url(#clip0_10_18)">
<path d="M0.94873 109.397C0.94873 135.282 21.9491 156.282 47.8333 156.282H70.8849L142.579 98.8972C151.175 92.0111 163.384 92.0599 171.98 98.9949C180.575 105.93 183.115 117.846 178.231 127.712L163.922 156.282H172.859H204.115C230 156.282 251 135.282 251 109.397C251 83.5132 230 62.5128 204.115 62.5128C203.871 62.5128 203.578 62.5128 203.334 62.5128C203.871 59.9732 204.115 57.3848 204.115 54.6987C204.115 33.1123 186.631 15.6282 165.045 15.6282C153.177 15.6282 142.531 20.9516 135.351 29.3029C126.219 11.8677 107.953 0 86.9039 0C56.673 0 32.2051 24.4679 32.2051 54.6987C32.2051 58.1662 32.547 61.5849 33.1331 64.857C14.4281 71.0107 0.94873 88.6412 0.94873 109.397ZM162.163 111.156C159.331 108.86 155.228 108.86 152.347 111.107L74.2059 173.62C71.6175 175.671 70.5919 179.187 71.7152 182.313C72.8385 185.438 75.7688 187.538 79.0898 187.538H113.325L87.7341 238.721C86.0736 241.993 86.9527 245.998 89.8341 248.293C92.7156 250.588 96.7692 250.588 99.6506 248.342L177.792 185.829C180.38 183.778 181.406 180.262 180.282 177.136C179.159 174.01 176.229 171.91 172.908 171.91H138.623L164.215 120.728C165.875 117.456 164.996 113.451 162.163 111.156V111.156Z" fill="white"/>
</g>
<defs>
<clipPath id="clip0_10_18">
<rect width="250.051" height="250.051" fill="white" transform="translate(0.94873)"/>
</clipPath>
</defs>
</svg>
