<svg width="282" height="251" viewBox="0 0 282 251" fill="none" xmlns="http://www.w3.org/2000/svg">
<g clip-path="url(#clip0_10_6)">
<path d="M62.6922 156.282C36.808 156.282 15.8076 135.282 15.8076 109.397C15.8076 88.6412 29.2869 71.0107 47.992 64.8571C47.4059 61.5849 47.064 58.1662 47.064 54.6987C47.064 24.4679 71.5319 0 101.763 0C122.812 0 141.077 11.8677 150.21 29.3029C157.389 20.9516 168.036 15.6282 179.904 15.6282C201.49 15.6282 218.974 33.1123 218.974 54.6987C218.974 57.3848 218.681 59.9732 218.193 62.5128C218.437 62.5128 218.73 62.5128 218.974 62.5128C244.859 62.5128 265.859 83.5132 265.859 109.397C265.859 135.282 244.859 156.282 218.974 156.282H62.6922ZM55.6107 172.838C61.569 175.378 64.3039 182.264 61.7643 188.222L38.322 242.921C35.7824 248.879 28.8962 251.614 22.938 249.075C16.9797 246.535 14.2448 239.649 16.7844 233.691L40.2267 178.992C42.7663 173.034 49.6524 170.299 55.6107 172.838ZM114.216 172.838C120.175 175.378 122.91 182.264 120.37 188.222L96.9278 242.921C94.3882 248.879 87.502 251.614 81.5438 249.075C75.5855 246.535 72.8506 239.649 75.3901 233.691L98.8325 178.992C101.372 173.034 108.258 170.299 114.216 172.838ZM233.675 188.222L210.232 242.921C207.693 248.879 200.807 251.614 194.848 249.075C188.89 246.535 186.155 239.649 188.695 233.691L212.137 178.992C214.677 173.034 221.563 170.299 227.521 172.838C233.479 175.378 236.214 182.264 233.675 188.222ZM168.915 172.838C174.873 175.378 177.608 182.264 175.069 188.222L151.626 242.921C149.087 248.879 142.201 251.614 136.242 249.075C130.284 246.535 127.549 239.649 130.089 233.691L153.531 178.992C156.071 173.034 162.957 170.299 168.915 172.838Z" fill="white"/>
</g>
<defs>
<clipPath id="clip0_10_6">
<rect width="281.308" height="250.051" fill="white" transform="translate(0.179443)"/>
</clipPath>
</defs>
</svg>
