<svg width="251" height="251" viewBox="0 0 251 251" fill="none" xmlns="http://www.w3.org/2000/svg">
<g clip-path="url(#clip0_10_10)">
<path d="M47.3717 156.282C21.4875 156.282 0.487061 135.282 0.487061 109.397C0.487061 88.6412 13.9664 71.0107 32.6714 64.8571C32.0853 61.5849 31.7435 58.1662 31.7435 54.6987C31.7435 24.4679 56.2114 0 86.4422 0C107.491 0 125.757 11.8677 134.89 29.3029C142.069 20.9516 152.716 15.6282 164.583 15.6282C186.17 15.6282 203.654 33.1123 203.654 54.6987C203.654 57.3848 203.361 59.9732 202.872 62.5128C203.117 62.5128 203.41 62.5128 203.654 62.5128C229.538 62.5128 250.538 83.5132 250.538 109.397C250.538 135.282 229.538 156.282 203.654 156.282H47.3717ZM44.0507 181.678C44.6856 180.457 45.9554 179.724 47.3717 179.724C48.788 179.724 50.0089 180.457 50.6927 181.678L67.8349 213.227C69.8372 216.89 70.8628 220.944 70.8628 225.095V226.56C70.8628 239.502 60.3626 250.002 47.4205 250.002C34.4784 250.002 23.9782 239.502 23.9782 226.56V225.095C23.9782 220.944 25.0038 216.841 27.0062 213.227L44.0507 181.678ZM122.192 181.678C122.827 180.457 124.096 179.724 125.513 179.724C126.929 179.724 128.15 180.457 128.834 181.678L145.976 213.227C147.978 216.89 149.004 220.944 149.004 225.095V226.56C149.004 239.502 138.504 250.002 125.562 250.002C112.619 250.002 102.119 239.502 102.119 226.56V225.095C102.119 220.944 103.145 216.841 105.147 213.227L122.192 181.678ZM183.191 213.227L200.333 181.678C200.968 180.457 202.237 179.724 203.654 179.724C205.07 179.724 206.291 180.457 206.975 181.678L224.117 213.227C226.119 216.89 227.145 220.944 227.145 225.095V226.56C227.145 239.502 216.645 250.002 203.703 250.002C190.76 250.002 180.26 239.502 180.26 226.56V225.095C180.26 220.944 181.286 216.841 183.288 213.227H183.191Z" fill="white"/>
</g>
<defs>
<clipPath id="clip0_10_10">
<rect width="250.051" height="250.051" fill="white" transform="translate(0.487061)"/>
</clipPath>
</defs>
</svg>
