<svg width="251" height="251" viewBox="0 0 251 251" fill="none" xmlns="http://www.w3.org/2000/svg">
<g clip-path="url(#clip0_10_12)">
<path d="M0.538574 109.397C0.538574 135.282 21.539 156.282 47.4232 156.282H70.4748L142.169 98.8972C150.765 92.0111 162.974 92.0599 171.57 98.9949C180.165 105.93 182.705 117.846 177.821 127.712L163.511 156.282H172.449H203.705C229.589 156.282 250.59 135.282 250.59 109.397C250.59 83.5132 229.589 62.5128 203.705 62.5128C203.461 62.5128 203.168 62.5128 202.924 62.5128C203.461 59.9732 203.705 57.3848 203.705 54.6987C203.705 33.1123 186.221 15.6282 164.635 15.6282C152.767 15.6282 142.12 20.9516 134.941 29.3029C125.808 11.8677 107.543 0 86.4937 0C56.2629 0 31.795 24.4679 31.795 54.6987C31.795 58.1662 32.1369 61.5849 32.7229 64.857C14.0179 71.0107 0.538574 88.6412 0.538574 109.397ZM161.753 111.156C158.921 108.86 154.818 108.86 151.937 111.107L73.7958 173.62C71.2074 175.671 70.1818 179.187 71.305 182.313C72.4283 185.438 75.3586 187.538 78.6796 187.538H112.915L87.324 238.721C85.6635 241.993 86.5425 245.998 89.424 248.293C92.3054 250.588 96.359 250.588 99.2405 248.342L177.381 185.829C179.97 183.778 180.996 180.262 179.872 177.136C178.749 174.01 175.819 171.91 172.498 171.91H138.213L163.804 120.728C165.465 117.456 164.586 113.451 161.753 111.156V111.156Z" fill="white"/>
</g>
<defs>
<clipPath id="clip0_10_12">
<rect width="250.051" height="250.051" fill="white" transform="translate(0.538574)"/>
</clipPath>
</defs>
</svg>
