<svg width="220" height="251" viewBox="0 0 220 251" fill="none" xmlns="http://www.w3.org/2000/svg">
<g clip-path="url(#clip0_10_14)">
<path d="M109.987 0C118.631 0 125.615 6.98385 125.615 15.6282V30.3285L132.941 23.0028C137.532 18.412 144.955 18.412 149.497 23.0028C154.039 27.5935 154.088 35.0169 149.497 39.5589L125.566 63.4896V97.8228L155.553 80.3387L164.197 48.0567C165.858 41.8054 172.304 38.0938 178.556 39.7542C184.807 41.4147 188.519 47.8614 186.858 54.1127L184.319 63.5384L195.844 56.7988C203.317 52.4522 212.889 54.9917 217.236 62.4151C221.582 69.8385 219.043 79.4597 211.619 83.8063L199.263 91.0343L209.861 93.8669C216.112 95.5274 219.824 101.974 218.164 108.225C216.503 114.477 210.056 118.188 203.805 116.528L170.742 107.688L140.999 125.026L170.742 142.363L203.805 133.523C210.056 131.863 216.503 135.575 218.164 141.826C219.824 148.077 216.112 154.524 209.861 156.184L199.263 159.017L211.619 166.245C219.091 170.592 221.582 180.164 217.236 187.636C212.889 195.108 203.317 197.599 195.844 193.253L184.319 186.513L186.858 195.939C188.519 202.19 184.807 208.637 178.556 210.297C172.304 211.958 165.858 208.246 164.197 201.995L155.553 169.713L125.615 152.228V186.562L149.546 210.492C154.137 215.083 154.137 222.507 149.546 227.049C144.955 231.59 137.532 231.639 132.99 227.049L125.664 219.723V234.423C125.664 243.067 118.68 250.051 110.036 250.051C101.392 250.051 94.4077 243.067 94.4077 234.423V219.723L87.0819 227.049C82.4912 231.639 75.0678 231.639 70.5258 227.049C65.9839 222.458 65.935 215.034 70.5258 210.492L94.4565 186.562V152.228L64.4699 169.713L55.8255 201.995C54.165 208.246 47.7184 211.958 41.4671 210.297C35.2158 208.637 31.5041 202.19 33.1646 195.939L35.7042 186.513L24.0807 193.204C16.6085 197.55 7.03622 195.011 2.68963 187.587C-1.65697 180.164 0.882618 170.543 8.30602 166.196L20.6621 158.968L10.0642 156.136C3.81291 154.475 0.101208 148.028 1.7617 141.777C3.4222 135.526 9.86884 131.814 16.1201 133.475L49.1835 142.314L78.9748 125.026L49.2324 107.688L16.169 116.528C9.91767 118.188 3.47104 114.477 1.81054 108.225C0.150046 101.974 3.86174 95.5274 10.113 93.8669L20.7109 91.0343L8.35485 83.8063C0.882618 79.4597 -1.60813 69.8874 2.73847 62.464C7.08506 55.0406 16.6573 52.501 24.1296 56.8476L35.6554 63.5873L33.1158 54.1615C31.4553 47.9102 35.167 41.4636 41.4183 39.8031C47.6696 38.1426 54.1162 41.8543 55.7767 48.1056L64.421 80.3876L94.3588 97.8228V63.4407L70.4281 39.5589C65.8373 34.9681 65.8373 27.5447 70.4281 23.0028C75.0189 18.4608 82.4423 18.412 86.9843 23.0028L94.31 30.3285V15.6282C94.31 6.98385 101.294 0 109.938 0H109.987Z" fill="white"/>
</g>
<defs>
<clipPath id="clip0_10_14">
<rect width="218.795" height="250.051" fill="white" transform="translate(0.589844)"/>
</clipPath>
</defs>
</svg>
