<svg width="313" height="251" viewBox="0 0 313 251" fill="none" xmlns="http://www.w3.org/2000/svg">
<g clip-path="url(#clip0_10_16)">
<path d="M16.0127 70.3269C16.0127 109.153 47.5133 140.654 86.3397 140.654H146.557C157.595 150.373 172.051 156.282 187.923 156.282C203.795 156.282 218.251 150.373 229.289 140.654H242.622C272.853 140.654 297.32 116.186 297.32 85.9551C297.32 55.7243 272.853 31.2564 242.622 31.2564C237.396 31.2564 232.366 31.989 227.58 33.3565C217.128 13.5282 196.274 0 172.295 0C156.374 0 141.82 5.95825 130.734 15.7747C118.622 5.90941 103.189 0 86.3397 0C47.5133 0 16.0127 31.5006 16.0127 70.3269ZM301.227 179.724H137.131C130.636 179.724 125.41 184.95 125.41 191.446C125.41 197.941 130.636 203.167 137.131 203.167H301.227C307.723 203.167 312.949 197.941 312.949 191.446C312.949 184.95 307.723 179.724 301.227 179.724ZM269.971 226.609H215.272C208.777 226.609 203.551 231.835 203.551 238.33C203.551 244.826 208.777 250.051 215.272 250.051H269.971C276.467 250.051 281.692 244.826 281.692 238.33C281.692 231.835 276.467 226.609 269.971 226.609ZM176.202 226.609H12.1057C5.6102 226.609 0.384521 231.835 0.384521 238.33C0.384521 244.826 5.6102 250.051 12.1057 250.051H176.202C182.697 250.051 187.923 244.826 187.923 238.33C187.923 231.835 182.697 226.609 176.202 226.609ZM109.782 191.446C109.782 184.95 104.556 179.724 98.0608 179.724H47.2691C40.7737 179.724 35.548 184.95 35.548 191.446C35.548 197.941 40.7737 203.167 47.2691 203.167H98.0608C104.556 203.167 109.782 197.941 109.782 191.446Z" fill="white"/>
</g>
<defs>
<clipPath id="clip0_10_16">
<rect width="312.564" height="250.051" fill="white" transform="translate(0.384521)"/>
</clipPath>
</defs>
</svg>
